<svg viewBox="0 0 860 136" xmlns="http://www.w3.org/2000/svg"><path fill="#9924FF" d="M105.867 67.806a2.565 2.565 0 001.415-3.33L93.18 29.587a2.568 2.568 0 00-3.33-1.415l-9.064 3.661a2.562 2.562 0 00-1.41 3.33l14.101 34.89a2.564 2.564 0 003.326 1.414l9.064-3.66zM85.78 79.026c.987-.987.987-2.6 0-3.588L51.655 41.322a2.545 2.545 0 00-3.589 0l-6.939 6.937a2.543 2.543 0 000 3.588l34.125 34.116a2.54 2.54 0 003.584 0l6.944-6.937zm-14.5 17.962a2.567 2.567 0 00-1.415-3.33L34.962 79.561a2.56 2.56 0 00-3.326 1.414l-3.662 9.062a2.561 2.561 0 001.41 3.325l34.903 14.098a2.558 2.558 0 003.326-1.41l3.667-9.062zM67.915.206c37.504 0 67.91 30.402 67.91 67.897 0 37.5-30.406 67.897-67.91 67.897C30.405 136 0 105.603 0 68.103 0 30.608 30.405.206 67.915.206zM429.678 0c1.736 0 1.989 1.215 1.677 2.586l-4.634 23.738c-.155 1.37-.943 1.677-2.217 1.677H413.34c-1.741 0-1.989-1.215-1.683-2.586l4.64-23.738c.155-1.37.938-1.677 2.217-1.677h11.164zm144.24 49.308c0 1.23-.759 1.828-2.13 1.828h-13.742c3.958 6.874 5.189 14.044 5.189 21.667 0 25.468-17.695 46.673-42.572 46.673-9.146 0-20.281-4.575-25.012-14.03-5.65 7.16-13.275 14.03-25.485 14.03-7.936 0-16.62-2.591-21.055-10.53-6.7 6.709-14.942 10.53-23.49 10.53-25.475 0-28.227-21.356-24.872-40.422l3.86-22.493c-6.097 3.175-15.132 3.175-20.033 2.061 1.23 4.57 1.678 9.144 1.678 13.719 0 24.559-13.722 47.135-40.724 47.135-9.467 0-19.683-4.424-24.41-14.186-5.037 8.843-14.801 14.186-24.72 14.186-7.47 0-15.712-4.128-19.835-12.353-6.866 8.993-17.238 12.353-25.63 12.353-17.695 0-25.013-10.982-25.013-27.919 0-4.418.603-9.144 1.527-14.335l7.177-39.668c.155-1.08.924-1.527 2.14-1.527h12.579c1.512 0 1.682 1.23 1.526 2.14l-7.254 39.516c-3.05 16.475-1.984 26.237 9.613 26.237 10.06 0 17.388-6.865 20.13-22.124l7.946-44.242c.156-1.08.924-1.527 2.14-1.527h12.584c1.507 0 1.677 1.23 1.522 2.14l-7.406 40.425c-1.828 9.611-3.355 25.177 8.393 25.177 8.383 0 13.727-8.39 17.237-27.16l13.727-75.033C329.653.51 330.66 0 331.638 0h12.589c.841 0 1.818.754 1.527 2.125l-7.09 39.255c6.253-3.515 13.416-5.64 20.287-5.64 6.253 0 10.532 1.833 14.796 3.807 14.306 7.097 27.814 3.126 33.76-2.358.72-.73 1.537-1.162 2.597-1.162h12.356c2.028 0 2.29 1.371 1.984 2.907l-7.522 40.271c-2.281 11.137-2.13 24.564 9.763 24.564 9.92 0 16.48-10.073 19.528-26.086l5.048-25.643h-14.165c-1.522 0-2.446-.753-2.446-2.124V38.322c0-1.527.773-2.295 2.14-2.295h17.592l6.647-34.35C461.18.308 461.968 0 463.242 0h12.292c1.741 0 1.984 1.216 1.678 2.587l-6.487 33.44h18.847c1.381 0 2.14.768 2.14 2.14v11.9c0 1.22-.759 1.973-1.984 1.973h-22.134l-5.364 27.165c-1.828 9.46-3.048 24.564 8.704 24.564 13.12 0 17.695-13.12 19.684-27.3 3.958-28.07 20.743-41.035 43.48-41.035h37.69c1.371 0 2.13.754 2.13 2.14v11.734zm-204.134 23.65c0-14.948-7.157-21.666-15.346-21.666-10.96 0-23.087 11.594-23.087 30.966 0 11.745 5.115 21.51 15.638 21.51 11.83 0 22.795-11.904 22.795-30.81zm176.82 0c0-14.948-7.473-21.666-16.021-21.666-11.442 0-24.104 11.594-24.104 30.966 0 11.745 5.344 21.51 16.329 21.51 12.35 0 23.797-11.904 23.797-30.81zm-323.59-26.085l-5.791 8.993c-.773 1.074-1.833 1.23-2.743.617-5.037-2.897-11.135-6.869-20.145-6.869-8.393 0-14.184 2.742-14.184 8.085 0 4.88 1.678 6.407 15.861 12.362 15.264 6.407 22.582 12.046 22.582 25.624 0 17.986-14.801 23.79-30.819 23.79-6.715 0-20.442-.767-31.27-13.27l-3.2-3.666c-.496-.651-.773-1.065-.773-1.682 0-.603.311-1.215.773-1.677l8.684-7.623c.433-.379.924-.602 1.527-.602.462 0 1.075.145 1.527.758 6.866 8.084 13.887 12.207 22.732 12.207 9.764 0 14.043-2.601 14.043-8.235 0-4.278-1.833-6.408-13.274-11.288-17.097-7.175-24.721-12.518-24.721-26.698s11.903-23.942 30.818-23.942c9.307 0 18.915 3.048 27.77 9.3.91.612 1.216 1.37 1.216 1.983 0 .617-.307 1.22-.613 1.833zm368.483 25.885V35.322h6.953v37.436h-6.953zm52.528 0l-.054-24.812-12.307 20.534h-3.102L616.26 48.262v24.495h-6.633V35.321h5.724l14.87 24.812 14.606-24.812h5.723l.054 37.436h-6.58zm52.149 0l-.053-24.812-12.308 20.534h-3.102L668.41 48.262v24.495h-6.632V35.321h5.723l14.87 24.812 14.606-24.812h5.723l.054 37.436h-6.579zm48.404-18.72c0-7.646-5.616-13.159-13.158-13.159s-13.163 5.513-13.163 13.16c0 7.646 5.621 13.154 13.163 13.154s13.158-5.508 13.158-13.154zm-33.328 0c0-11.068 8.558-19.255 20.17-19.255 11.607 0 20.165 8.133 20.165 19.256 0 11.122-8.558 19.25-20.165 19.25-11.612 0-20.17-8.181-20.17-19.25zM786.3 61.9c0-3.748-2.835-5.4-8.077-5.4h-11.237v10.8h11.237c5.242 0 8.077-1.657 8.077-5.4zm-19.314-21.127v10.32h9.846c4.814 0 7.542-1.706 7.542-5.128 0-3.48-2.728-5.192-7.542-5.192h-9.846zm26.32 21.822c0 6.417-5.027 10.16-14.655 10.16h-18.619V35.32h17.55c8.985 0 13.8 3.797 13.8 9.732 0 3.85-1.926 6.684-4.815 8.24 4.012 1.279 6.74 4.438 6.74 9.304zm8.5 10.163V35.322h6.954v37.436h-6.954zm18.13-37.438h6.954v31.555h19.581v5.882h-26.535V35.32zm33.112 37.438V35.322H860v37.436h-6.953z" fill-rule="evenodd"/></svg>